STARTFONT 2.1
FONT -FontForge-Moon Phases-Book-R-Normal--20-720-20-20-P-205-MacRoman-0
SIZE 72 20 20
FONTBOUNDINGBOX 18 18 1 2
COMMENT "Generated by fontforge, http://fontforge.sourceforge.net"
COMMENT "(c) 1995 by Curtis Clark, free for personal use"
STARTPROPERTIES 30
FOUNDRY "FontForge"
FAMILY_NAME "Moon Phases"
WEIGHT_NAME "Book"
SLANT "R"
SETWIDTH_NAME "Normal"
ADD_STYLE_NAME ""
PIXEL_SIZE 20
POINT_SIZE 720
RESOLUTION_X 20
RESOLUTION_Y 20
SPACING "P"
AVERAGE_WIDTH 205
CHARSET_REGISTRY "MacRoman"
CHARSET_ENCODING "0"
FONTNAME_REGISTRY ""
CHARSET_COLLECTIONS "MacRoman"
FONT_NAME "MoonPhases"
FACE_NAME "Moon Phases"
COPYRIGHT "(c) 1995 by Curtis Clark, free for personal use"
FONT_VERSION "001.000"
FONT_ASCENT 16
FONT_DESCENT 4
UNDERLINE_POSITION 0
UNDERLINE_THICKNESS 1
X_HEIGHT 17
CAP_HEIGHT 19
RAW_ASCENT 800
RAW_DESCENT 200
AVG_LOWERCASE_WIDTH 200
AVG_UPPERCASE_WIDTH 210
ENDPROPERTIES
CHARS 54
STARTCHAR zero
ENCODING 48
SWIDTH 1006 0
DWIDTH 21 0
BBX 18 18 1 2
BITMAP
03F000
0FFC00
1FFE00
3FFF00
7FFF80
7FFF80
FFFFC0
FFFFC0
FFFFC0
FFFFC0
FFFFC0
FFFFC0
7FFF80
7FFF80
3FFF00
1FFE00
0FFC00
03F000
ENDCHAR
STARTCHAR .notdef.dup45
ENCODING 49
SWIDTH 1000 0
DWIDTH 20 0
BBX 18 18 1 2
BITMAP
03F000
080400
100200
200100
400080
000000
800040
800040
800040
800040
800040
800040
000000
400080
200100
100200
080400
03F000
ENDCHAR
STARTCHAR A
ENCODING 65
SWIDTH 1006 0
DWIDTH 21 0
BBX 18 18 1 2
BITMAP
03F000
0FFC00
1FFE00
3FFF00
7FFF80
7FFF00
FFFF40
FFFFC0
FFFFC0
FFFFC0
FFFFC0
FFFF40
7FFF00
7FFF80
3FFF00
1FFE00
0FFC00
03F000
ENDCHAR
STARTCHAR B
ENCODING 66
SWIDTH 1006 0
DWIDTH 21 0
BBX 18 18 1 2
BITMAP
03F000
0FFC00
1FFA00
3FFD00
7FFE80
7FFE00
FFFF40
FFFF40
FFFF40
FFFF40
FFFF40
FFFF40
7FFE00
7FFE80
3FFD00
1FFA00
0FFC00
03F000
ENDCHAR
STARTCHAR C
ENCODING 67
SWIDTH 1006 0
DWIDTH 21 0
BBX 18 18 1 2
BITMAP
03F000
0FF400
1FFA00
3FF900
7FFC80
7FFC00
FFFE40
FFFE40
FFFE40
FFFE40
FFFE40
FFFE40
7FFC00
7FFC80
3FF900
1FFA00
0FF400
03F000
ENDCHAR
STARTCHAR D
ENCODING 68
SWIDTH 1006 0
DWIDTH 21 0
BBX 18 18 1 2
BITMAP
03F000
0FE400
1FF200
3FF900
7FF880
7FF800
FFFC40
FFFC40
FFFC40
FFFC40
FFFC40
FFFC40
7FF800
7FF880
3FF900
1FF200
0FE400
03F000
ENDCHAR
STARTCHAR E
ENCODING 69
SWIDTH 1006 0
DWIDTH 21 0
BBX 18 18 1 2
BITMAP
03F000
0FE400
1FE200
3FF100
7FF080
7FF000
FFF040
FFF040
FFF040
FFF040
FFF040
FFF040
7FF000
7FF080
3FF100
1FE200
0FC400
03F000
ENDCHAR
STARTCHAR F
ENCODING 70
SWIDTH 1006 0
DWIDTH 21 0
BBX 18 18 1 2
BITMAP
03F000
0FC400
1FC200
3FC100
7FE080
7FE000
FFE040
FFE040
FFE040
FFE040
FFE040
FFE040
7FE000
7FE080
3FC100
1FC200
0FC400
03F000
ENDCHAR
STARTCHAR G
ENCODING 71
SWIDTH 1006 0
DWIDTH 21 0
BBX 18 18 1 2
BITMAP
03F000
0F8400
1F8200
3F8100
7F8080
7F8000
FF8040
FF8040
FF8040
FF8040
FF8040
FF8040
7F8000
7F8080
3F8100
1F8200
0F8400
03F000
ENDCHAR
STARTCHAR H
ENCODING 72
SWIDTH 1006 0
DWIDTH 21 0
BBX 18 18 1 2
BITMAP
03F000
0F0400
1F0200
3F0100
7E0080
7E0000
FE0040
FE0040
FE0040
FE0040
FE0040
FE0040
7E0000
7E0080
3F0100
1F0200
0F0400
03F000
ENDCHAR
STARTCHAR I
ENCODING 73
SWIDTH 1006 0
DWIDTH 21 0
BBX 18 18 1 2
BITMAP
03F000
0E0400
1E0200
3C0100
7C0080
7C0000
FC0040
FC0040
FC0040
FC0040
FC0040
FC0040
7C0000
7C0080
3C0100
1E0200
0F0400
03F000
ENDCHAR
STARTCHAR J
ENCODING 74
SWIDTH 1006 0
DWIDTH 21 0
BBX 18 18 1 2
BITMAP
03F000
0E0400
1C0200
380100
780080
780000
F80040
F00040
F00040
F00040
F00040
F00040
780000
780080
380100
1C0200
0E0400
03F000
ENDCHAR
STARTCHAR K
ENCODING 75
SWIDTH 1006 0
DWIDTH 21 0
BBX 18 18 1 2
BITMAP
03F000
0C0400
180200
380100
700080
700000
E00040
E00040
E00040
E00040
E00040
E00040
700000
700080
380100
180200
0C0400
03F000
ENDCHAR
STARTCHAR L
ENCODING 76
SWIDTH 1006 0
DWIDTH 21 0
BBX 18 18 1 2
BITMAP
03F000
0C0400
180200
300100
600080
600000
C00040
C00040
C00040
C00040
C00040
C00040
600000
600080
300100
180200
0C0400
03F000
ENDCHAR
STARTCHAR M
ENCODING 77
SWIDTH 1006 0
DWIDTH 21 0
BBX 18 18 1 2
BITMAP
03F000
080400
100200
200100
400080
400000
C00040
800040
800040
800040
800040
C00040
400000
400080
200100
100200
0C0400
03F000
ENDCHAR
STARTCHAR N
ENCODING 78
SWIDTH 1006 0
DWIDTH 21 0
BBX 18 18 1 2
BITMAP
03F000
080400
100200
200100
400080
000080
8000C0
800040
800040
800040
800040
8000C0
000080
400080
200100
100200
080400
03F000
ENDCHAR
STARTCHAR O
ENCODING 79
SWIDTH 1006 0
DWIDTH 21 0
BBX 18 18 1 2
BITMAP
03F000
080C00
100600
200300
400180
000180
8000C0
8000C0
8000C0
8000C0
8000C0
8000C0
000180
400180
200300
100600
080C00
03F000
ENDCHAR
STARTCHAR P
ENCODING 80
SWIDTH 1006 0
DWIDTH 21 0
BBX 18 18 1 2
BITMAP
03F000
080C00
100600
200700
400380
000380
8001C0
8001C0
8001C0
8001C0
8001C0
8001C0
000380
400380
200700
100600
080C00
03F000
ENDCHAR
STARTCHAR Q
ENCODING 81
SWIDTH 1006 0
DWIDTH 21 0
BBX 18 18 1 2
BITMAP
03F000
081C00
100E00
200700
400780
000780
8003C0
8003C0
8003C0
8003C0
8003C0
8003C0
000780
400780
200700
100E00
081C00
03F000
ENDCHAR
STARTCHAR R
ENCODING 82
SWIDTH 1006 0
DWIDTH 21 0
BBX 18 18 1 2
BITMAP
03F000
081C00
101E00
200F00
400F80
000F80
800FC0
800FC0
800FC0
800FC0
800FC0
800FC0
000F80
400F80
200F00
101E00
083C00
03F000
ENDCHAR
STARTCHAR S
ENCODING 83
SWIDTH 1006 0
DWIDTH 21 0
BBX 18 18 1 2
BITMAP
03F000
083C00
103E00
203F00
401F80
001F80
801FC0
801FC0
801FC0
801FC0
801FC0
801FC0
001F80
401F80
203F00
103E00
083C00
03F000
ENDCHAR
STARTCHAR T
ENCODING 84
SWIDTH 1006 0
DWIDTH 21 0
BBX 18 18 1 2
BITMAP
03F000
087C00
107E00
207F00
407F80
007F80
807FC0
807FC0
807FC0
807FC0
807FC0
807FC0
007F80
407F80
207F00
107E00
087C00
03F000
ENDCHAR
STARTCHAR U
ENCODING 85
SWIDTH 1006 0
DWIDTH 21 0
BBX 18 18 1 2
BITMAP
03F000
08FC00
10FE00
20FF00
41FF80
01FF80
81FFC0
81FFC0
81FFC0
81FFC0
81FFC0
81FFC0
01FF80
41FF80
20FF00
10FE00
08FC00
03F000
ENDCHAR
STARTCHAR V
ENCODING 86
SWIDTH 1006 0
DWIDTH 21 0
BBX 18 18 1 2
BITMAP
03F000
09FC00
11FE00
23FF00
43FF80
03FF80
83FFC0
83FFC0
83FFC0
83FFC0
83FFC0
83FFC0
03FF80
43FF80
23FF00
11FE00
09FC00
03F000
ENDCHAR
STARTCHAR W
ENCODING 87
SWIDTH 1006 0
DWIDTH 21 0
BBX 18 18 1 2
BITMAP
03F000
09FC00
13FE00
27FF00
47FF80
07FF80
8FFFC0
8FFFC0
8FFFC0
8FFFC0
8FFFC0
8FFFC0
07FF80
47FF80
27FF00
13FE00
09FC00
03F000
ENDCHAR
STARTCHAR X
ENCODING 88
SWIDTH 1006 0
DWIDTH 21 0
BBX 18 18 1 2
BITMAP
03F000
0BFC00
17FE00
27FF00
4FFF80
0FFF80
9FFFC0
9FFFC0
9FFFC0
9FFFC0
9FFFC0
9FFFC0
0FFF80
4FFF80
27FF00
17FE00
0BFC00
03F000
ENDCHAR
STARTCHAR Y
ENCODING 89
SWIDTH 1006 0
DWIDTH 21 0
BBX 18 18 1 2
BITMAP
03F000
0FFC00
17FE00
2FFF00
5FFF80
1FFF80
BFFFC0
BFFFC0
BFFFC0
BFFFC0
BFFFC0
BFFFC0
1FFF80
5FFF80
2FFF00
17FE00
0FFC00
03F000
ENDCHAR
STARTCHAR Z
ENCODING 90
SWIDTH 1006 0
DWIDTH 21 0
BBX 18 18 1 2
BITMAP
03F000
0FFC00
1FFE00
3FFF00
7FFF80
3FFF80
BFFFC0
FFFFC0
FFFFC0
FFFFC0
FFFFC0
BFFFC0
3FFF80
7FFF80
3FFF00
1FFE00
0FFC00
03F000
ENDCHAR
STARTCHAR a
ENCODING 97
SWIDTH 972 0
DWIDTH 20 0
BBX 2 9 16 6
BITMAP
80
00
40
40
40
40
40
40
80
ENDCHAR
STARTCHAR b
ENCODING 98
SWIDTH 972 0
DWIDTH 20 0
BBX 4 14 14 4
BITMAP
80
40
60
20
30
10
10
10
10
10
30
20
60
40
ENDCHAR
STARTCHAR c
ENCODING 99
SWIDTH 972 0
DWIDTH 20 0
BBX 5 15 13 3
BITMAP
C0
60
30
30
38
18
18
18
18
18
38
30
30
60
C0
ENDCHAR
STARTCHAR d
ENCODING 100
SWIDTH 972 0
DWIDTH 20 0
BBX 6 17 12 2
BITMAP
80
60
70
38
3C
1C
1C
1C
1C
1C
1C
1C
3C
38
70
60
80
ENDCHAR
STARTCHAR e
ENCODING 101
SWIDTH 972 0
DWIDTH 20 0
BBX 7 17 12 2
BITMAP
80
E0
70
78
7C
3C
3E
3E
3E
3E
3E
3C
7C
78
70
E0
80
ENDCHAR
STARTCHAR f
ENCODING 102
SWIDTH 972 0
DWIDTH 20 0
BBX 8 17 10 2
BITMAP
E0
70
7C
7C
7E
7F
7F
3F
3F
3F
7F
7F
7E
7C
7C
70
C0
ENDCHAR
STARTCHAR g
ENCODING 103
SWIDTH 972 0
DWIDTH 20 0
BBX 8 17 10 2
BITMAP
E0
F8
FC
FE
FE
FF
FF
FF
FF
FF
FF
FF
FE
FE
FC
F8
E0
ENDCHAR
STARTCHAR h
ENCODING 104
SWIDTH 972 0
DWIDTH 20 0
BBX 10 17 8 2
BITMAP
7800
7E00
7F00
FF80
FF80
FFC0
FFC0
FFC0
FFC0
FFC0
FFC0
FFC0
FF80
FF80
7F00
7C00
7000
ENDCHAR
STARTCHAR i
ENCODING 105
SWIDTH 972 0
DWIDTH 20 0
BBX 12 17 7 2
BITMAP
3C00
3F00
7F80
7FC0
FFE0
FFE0
FFF0
FFF0
FFF0
FFF0
FFF0
FFE0
FFE0
7FC0
7F80
3F00
3C00
ENDCHAR
STARTCHAR j
ENCODING 106
SWIDTH 972 0
DWIDTH 20 0
BBX 13 17 5 2
BITMAP
1F00
3FC0
7FE0
7FF0
FFF0
FFF8
FFF8
FFF8
FFF8
FFF8
FFF8
FFF8
7FF0
7FE0
7FE0
3F80
1E00
ENDCHAR
STARTCHAR k
ENCODING 107
SWIDTH 972 0
DWIDTH 20 0
BBX 14 17 4 2
BITMAP
0F80
3FE0
3FF0
7FF8
7FF8
FFFC
FFFC
FFFC
FFFC
FFFC
FFFC
FFFC
7FF8
7FF8
3FF0
1FC0
0F00
ENDCHAR
STARTCHAR l
ENCODING 108
SWIDTH 972 0
DWIDTH 20 0
BBX 15 17 3 2
BITMAP
07C0
1FF0
3FF8
7FFC
7FFC
FFFE
FFFE
FFFE
FFFE
FFFE
FFFE
FFFE
7FFC
7FFC
3FF8
1FF0
0780
ENDCHAR
STARTCHAR m
ENCODING 109
SWIDTH 972 0
DWIDTH 20 0
BBX 16 17 2 2
BITMAP
07E0
1FF0
3FFC
7FFC
7FFE
FFFF
FFFF
FFFF
FFFF
FFFF
FFFF
FFFF
7FFE
7FFC
3FFC
1FF0
07C0
ENDCHAR
STARTCHAR n
ENCODING 110
SWIDTH 972 0
DWIDTH 20 0
BBX 16 17 2 2
BITMAP
03E0
0FF8
3FFC
3FFE
7FFE
7FFF
FFFF
FFFF
FFFF
FFFF
FFFF
7FFF
7FFE
3FFE
1FFC
0FF8
03E0
ENDCHAR
STARTCHAR o
ENCODING 111
SWIDTH 972 0
DWIDTH 20 0
BBX 15 17 2 2
BITMAP
03E0
0FF0
3FF8
3FFC
7FFE
7FFE
FFFE
FFFE
FFFE
FFFE
FFFE
7FFE
7FFE
3FFC
1FF8
0FF0
03E0
ENDCHAR
STARTCHAR p
ENCODING 112
SWIDTH 972 0
DWIDTH 20 0
BBX 14 17 2 2
BITMAP
03E0
0FF0
3FF8
3FF8
7FFC
7FFC
FFFC
FFFC
FFFC
FFFC
FFFC
7FFC
7FFC
3FF8
1FF8
0FF0
03C0
ENDCHAR
STARTCHAR q
ENCODING 113
SWIDTH 972 0
DWIDTH 20 0
BBX 13 17 2 2
BITMAP
03C0
0FE0
3FF0
3FF0
7FF8
7FF8
FFF8
FFF8
FFF8
FFF8
FFF8
7FF8
7FF8
3FF0
1FF0
0FE0
03C0
ENDCHAR
STARTCHAR r
ENCODING 114
SWIDTH 972 0
DWIDTH 20 0
BBX 12 17 2 2
BITMAP
03C0
0FC0
3FE0
3FE0
7FE0
7FF0
FFF0
FFF0
FFF0
FFF0
FFF0
7FF0
7FE0
3FE0
1FE0
0FC0
0380
ENDCHAR
STARTCHAR s
ENCODING 115
SWIDTH 972 0
DWIDTH 20 0
BBX 10 17 2 2
BITMAP
0380
0FC0
3FC0
3FC0
7FC0
7FC0
FFC0
FFC0
FFC0
FFC0
FFC0
7FC0
7FC0
3FC0
1FC0
0F80
0380
ENDCHAR
STARTCHAR t
ENCODING 116
SWIDTH 972 0
DWIDTH 20 0
BBX 9 17 2 2
BITMAP
0380
0F80
3F80
3F80
7F80
7F80
FF80
FF80
FF80
FF80
FF80
7F80
7F80
3F80
1F80
0F80
0300
ENDCHAR
STARTCHAR u
ENCODING 117
SWIDTH 972 0
DWIDTH 20 0
BBX 8 17 2 2
BITMAP
03
0E
3E
3E
7E
7E
FE
FE
FE
FE
FE
7E
7E
3E
1E
0E
03
ENDCHAR
STARTCHAR v
ENCODING 118
SWIDTH 972 0
DWIDTH 20 0
BBX 7 17 2 2
BITMAP
02
0E
3C
3C
78
78
F8
F8
F8
F8
F8
78
7C
3C
1C
0E
02
ENDCHAR
STARTCHAR w
ENCODING 119
SWIDTH 972 0
DWIDTH 20 0
BBX 7 17 2 2
BITMAP
02
0C
38
38
70
70
F0
F0
F0
F0
F0
70
70
38
18
0C
02
ENDCHAR
STARTCHAR x
ENCODING 120
SWIDTH 972 0
DWIDTH 20 0
BBX 5 15 2 3
BITMAP
08
30
30
60
60
E0
E0
E0
E0
E0
60
60
30
10
08
ENDCHAR
STARTCHAR y
ENCODING 121
SWIDTH 972 0
DWIDTH 20 0
BBX 5 14 2 3
BITMAP
30
20
40
40
C0
C0
C0
C0
C0
40
40
20
10
08
ENDCHAR
STARTCHAR z
ENCODING 122
SWIDTH 972 0
DWIDTH 20 0
BBX 2 9 2 6
BITMAP
40
00
80
80
80
80
80
00
40
ENDCHAR
ENDFONT
